<?xml version="1.0" encoding="utf-8"?>
<!-- Generator: Adobe Illustrator 26.0.2, SVG Export Plug-In . SVG Version: 6.00 Build 0)  -->
<svg version="1.1" id="图层_1" xmlns="http://www.w3.org/2000/svg" xmlns:xlink="http://www.w3.org/1999/xlink" x="0px" y="0px"
	 viewBox="0 0 63.82 69.1" style="enable-background:new 0 0 63.82 69.1;" xml:space="preserve">
<style type="text/css">
	.st0{fill:#5D87FF;}
	.st1{fill:#FFFFFF;}
</style>
<path class="st0" d="M61.77,14.33c-8.13-2.68-20.85-9.98-26.71-13.46c-1.94-1.15-4.36-1.15-6.3,0C22.9,4.35,10.17,11.64,2.05,14.33
	C0.81,14.73-0.02,15.8,0,17c0.12,7.88,2.46,36.14,28.95,51.31c1.83,1.05,4.1,1.05,5.93,0C61.36,53.14,63.7,24.88,63.82,17
	C63.84,15.8,63.01,14.73,61.77,14.33z"/>
<g>
	<polygon class="st1" points="21.55,23.35 26.71,16.88 31.88,23.35 	"/>
	<polygon class="st1" points="26.71,16.81 31.88,10.34 37.04,16.81 	"/>
	<polygon class="st1" points="31.97,23.35 37.13,16.88 42.29,23.35 	"/>
	<polygon class="st1" points="39.45,50.08 32.08,59.04 24.71,50.08 	"/>
	<polygon class="st1" points="29.23,28.39 31.96,25.67 34.68,28.39 31.96,32.92 	"/>
	<path class="st1" d="M32.66,41.87L35.81,47h4.87c0.64,0,1.24-0.29,1.64-0.78l2.13-2.63h-6.4l-6.06-8.53l-6.06,8.53h-6.4l2.13,2.63
		c0.4,0.49,1,0.78,1.64,0.78h4.87l3.15-5.14H32.66z"/>
	<path class="st1" d="M27.5,35.15l-5.97-9.16H5.29L7.8,28.8c0.53,0.6,1.29,0.95,2.1,0.96l9.45,0.16l1.31,2.15H10.2l2.03,2.23
		c0.53,0.59,1.28,0.93,2.07,0.94l8.41,0.15l1.37,2.15h-9.45l2.34,2.6c0.52,0.58,1.26,0.92,2.04,0.95l4.04,0.14L27.5,35.15z"/>
	<path class="st1" d="M36.33,35.15l5.97-9.16h16.23l-2.31,2.85c-0.55,0.67-1.37,1.07-2.24,1.07h-9.51l-1.31,2.15h10.46l-1.83,2.26
		c-0.55,0.67-1.37,1.07-2.24,1.07H41.1l-1.37,2.15h9.45l-1.97,2.47c-0.53,0.66-1.31,1.05-2.16,1.08l-4.29,0.13L36.33,35.15z"/>
</g>
</svg>
