<?xml version="1.0" encoding="utf-8"?>
<!-- Generator: Adobe Illustrator 26.0.2, SVG Export Plug-In . SVG Version: 6.00 Build 0)  -->
<svg version="1.1" id="图层_1" xmlns="http://www.w3.org/2000/svg" xmlns:xlink="http://www.w3.org/1999/xlink" x="0px" y="0px"
	 viewBox="0 0 69.1 69.1" style="enable-background:new 0 0 69.1 69.1;" xml:space="preserve">
<style type="text/css">
	.st0{fill:#5D87FF;}
	.st1{fill:#FFFFFF;}
</style>
<path class="st0" d="M64.41,14.33C56.28,11.65,43.56,4.35,37.7,0.87c-1.94-1.15-4.36-1.15-6.3,0C25.54,4.35,12.81,11.64,4.69,14.33
	C3.45,14.73,2.62,15.8,2.64,17c0.12,7.88,2.46,36.14,28.95,51.31c1.83,1.05,4.1,1.05,5.93,0C64,53.14,66.34,24.88,66.46,17
	C66.48,15.8,65.65,14.73,64.41,14.33z"/>
<g>
	<polygon class="st1" points="24.19,23.35 29.35,16.88 34.52,23.35 	"/>
	<polygon class="st1" points="29.35,16.81 34.52,10.34 39.68,16.81 	"/>
	<polygon class="st1" points="34.61,23.35 39.77,16.88 44.93,23.35 	"/>
	<polygon class="st1" points="42.09,50.08 34.72,59.04 27.35,50.08 	"/>
	<polygon class="st1" points="31.87,28.39 34.6,25.67 37.32,28.39 34.6,32.92 	"/>
	<path class="st1" d="M35.3,41.87L38.45,47h4.87c0.64,0,1.24-0.29,1.64-0.78l2.13-2.63h-6.4l-6.06-8.53l-6.06,8.53h-6.4l2.13,2.63
		c0.4,0.49,1,0.78,1.64,0.78h4.87l3.15-5.14L35.3,41.87L35.3,41.87z"/>
	<path class="st1" d="M30.14,35.15l-5.97-9.16H7.93l2.51,2.81c0.53,0.6,1.29,0.95,2.1,0.96l9.45,0.16l1.31,2.15H12.84l2.03,2.23
		c0.53,0.59,1.28,0.93,2.07,0.94l8.41,0.15l1.37,2.15h-9.45l2.34,2.6c0.52,0.58,1.26,0.92,2.04,0.95l4.04,0.14L30.14,35.15z"/>
	<path class="st1" d="M38.97,35.15l5.97-9.16h16.23l-2.31,2.85c-0.55,0.67-1.37,1.07-2.24,1.07h-9.51l-1.31,2.15h10.46l-1.83,2.26
		c-0.55,0.67-1.37,1.07-2.24,1.07h-8.45l-1.37,2.15h9.45l-1.97,2.47c-0.53,0.66-1.31,1.05-2.16,1.08l-4.29,0.13L38.97,35.15z"/>
</g>
</svg>
